<svg width="58" height="118" viewBox="0 0 58 118" fill="none" xmlns="http://www.w3.org/2000/svg">
<rect x="0.5" y="0.5" width="57" height="117" rx="8.5" fill="white"/>

<rect x="7" y="8" width="3" height="3" rx="3" fill="green"/>
<rect x="11" y="8" width="3" height="3" rx="3" fill="green"/>
<rect x="15" y="8" width="3" height="3" rx="3" fill="green"/>

<rect x="7" y="16" width="20" height="4" rx="2" fill="#007D8A"/>
<rect x="7" y="21" width="10" height="4" rx="2" fill="#007D8A"/>

<rect x="7" y="27" width="44" height="85" rx="3" fill="#C9E8E0"/>

<rect x="7" y="35" width="20" height="15" rx="3" fill="#007D8A"/>
<rect x="31" y="35" width="20" height="15" rx="3" fill="#007D8A"/>

<rect x="7" y="55" width="20" height="15" rx="3" fill="#007D8A"/>
<rect x="31" y="55" width="20" height="15" rx="3" fill="#007D8A"/>

<rect x="8" y="75" width="42" height="9" rx="2" fill="#007D8A"/>
<rect x="8" y="86" width="42" height="9" rx="2" fill="#007D8A"/>
<rect x="8" y="97" width="42" height="9" rx="2" fill="#007D8A"/>

<rect x="0.5" y="0.5" width="57" height="117" rx="8.5" stroke="#E3E6E7"/>
</svg>
