<svg width="16" height="16" viewBox="0 0 16 16" fill="none" xmlns="http://www.w3.org/2000/svg">
<path d="M12.6667 9C12.4015 9 12.1471 8.89464 11.9596 8.70711C11.772 8.51957 11.6667 8.26522 11.6667 8C11.6667 7.73478 11.772 7.48043 11.9596 7.29289C12.1471 7.10536 12.4015 7 12.6667 7C12.9319 7 13.1862 7.10536 13.3738 7.29289C13.5613 7.48043 13.6667 7.73478 13.6667 8C13.6667 8.26522 13.5613 8.51957 13.3738 8.70711C13.1862 8.89464 12.9319 9 12.6667 9ZM9.33333 9C9.06812 9 8.81376 8.89464 8.62623 8.70711C8.43869 8.51957 8.33333 8.26522 8.33333 8C8.33333 7.73478 8.43869 7.48043 8.62623 7.29289C8.81376 7.10536 9.06812 7 9.33333 7C9.59855 7 9.8529 7.10536 10.0404 7.29289C10.228 7.48043 10.3333 7.73478 10.3333 8C10.3333 8.26522 10.228 8.51957 10.0404 8.70711C9.8529 8.89464 9.59855 9 9.33333 9ZM6 9C5.73478 9 5.48043 8.89464 5.29289 8.70711C5.10536 8.51957 5 8.26522 5 8C5 7.73478 5.10536 7.48043 5.29289 7.29289C5.48043 7.10536 5.73478 7 6 7C6.26522 7 6.51957 7.10536 6.70711 7.29289C6.89464 7.48043 7 7.73478 7 8C7 8.26522 6.89464 8.51957 6.70711 8.70711C6.51957 8.89464 6.26522 9 6 9ZM14.6667 2H4.66667C4.20667 2 3.84667 2.23333 3.60667 2.58667L0 8L3.60667 13.4067C3.84667 13.76 4.24667 14 4.70667 14H14.6667C15.0203 14 15.3594 13.8595 15.6095 13.6095C15.8595 13.3594 16 13.0203 16 12.6667V3.33333C16 2.97971 15.8595 2.64057 15.6095 2.39052C15.3594 2.14048 15.0203 2 14.6667 2Z" fill="#F8F8F8" fill-opacity="0.5"/>
</svg>
