<svg width="24" height="25" viewBox="0 0 24 25" fill="none" xmlns="http://www.w3.org/2000/svg">
<path d="M13.8226 22.5H10.1826C9.71272 22.5 9.30616 22.173 9.2056 21.714L8.7986 19.83C8.25566 19.5921 7.74083 19.2946 7.2636 18.943L5.4266 19.528C4.9786 19.6709 4.49159 19.4823 4.2566 19.075L2.4326 15.924C2.20019 15.5165 2.28026 15.0025 2.6256 14.685L4.0506 13.385C3.9858 12.7961 3.9858 12.2019 4.0506 11.613L2.6256 10.316C2.27975 9.99837 2.19965 9.48372 2.4326 9.076L4.2526 5.923C4.48759 5.5157 4.9746 5.32714 5.4226 5.47L7.2596 6.055C7.50367 5.87416 7.75774 5.70722 8.0206 5.555C8.27294 5.41269 8.53264 5.28385 8.7986 5.169L9.2066 3.287C9.30667 2.82797 9.71279 2.50049 10.1826 2.5H13.8226C14.2924 2.50049 14.6985 2.82797 14.7986 3.287L15.2106 5.17C15.4914 5.29352 15.7648 5.43308 16.0296 5.588C16.2765 5.73081 16.5152 5.88739 16.7446 6.057L18.5826 5.472C19.0303 5.32967 19.5167 5.51816 19.7516 5.925L21.5716 9.078C21.804 9.48548 21.7239 9.99951 21.3786 10.317L19.9536 11.617C20.0184 12.2059 20.0184 12.8001 19.9536 13.389L21.3786 14.689C21.7239 15.0065 21.804 15.5205 21.5716 15.928L19.7516 19.081C19.5167 19.4878 19.0303 19.6763 18.5826 19.534L16.7446 18.949C16.512 19.1203 16.2703 19.2789 16.0206 19.424C15.7584 19.5759 15.488 19.7131 15.2106 19.835L14.7986 21.714C14.6981 22.1726 14.2921 22.4996 13.8226 22.5ZM7.6226 16.729L8.4426 17.329C8.62745 17.4652 8.82012 17.5904 9.0196 17.704C9.20731 17.8127 9.40057 17.9115 9.5986 18L10.5316 18.409L10.9886 20.5H13.0186L13.4756 18.408L14.4086 17.999C14.8159 17.8194 15.2025 17.5961 15.5616 17.333L16.3826 16.733L18.4236 17.383L19.4386 15.625L17.8556 14.182L17.9676 13.17C18.0168 12.7274 18.0168 12.2806 17.9676 11.838L17.8556 10.826L19.4396 9.38L18.4236 7.621L16.3826 8.271L15.5616 7.671C15.2024 7.40671 14.8158 7.18175 14.4086 7L13.4756 6.591L13.0186 4.5H10.9886L10.5296 6.592L9.5986 7C9.40041 7.08704 9.20712 7.18486 9.0196 7.293C8.82134 7.40633 8.6297 7.53086 8.4456 7.666L7.6246 8.266L5.5846 7.616L4.5676 9.38L6.1506 10.821L6.0386 11.834C5.98941 12.2766 5.98941 12.7234 6.0386 13.166L6.1506 14.178L4.5676 15.621L5.5826 17.379L7.6226 16.729ZM11.9986 16.5C9.78946 16.5 7.9986 14.7091 7.9986 12.5C7.9986 10.2909 9.78946 8.5 11.9986 8.5C14.2077 8.5 15.9986 10.2909 15.9986 12.5C15.9958 14.708 14.2066 16.4972 11.9986 16.5ZM11.9986 10.5C10.906 10.5011 10.0165 11.3788 10.0008 12.4713C9.98518 13.5638 10.8492 14.4667 11.9413 14.4991C13.0334 14.5315 13.9494 13.6815 13.9986 12.59V12.99V12.5C13.9986 11.3954 13.1032 10.5 11.9986 10.5Z" fill="#798B95"/>
</svg>